<svg xmlns="http://www.w3.org/2000/svg" width="632" height="329" fill="none">
  <path stroke="#CCC" stroke-miterlimit="10" stroke-width="2" d="M328.13 134.44v-14.16l-64.8-22.38v33.75l-64.79 22.37v14.16l64.79 22.38v-33.75l64.8-22.37Z"/>
  <path stroke="#CCC" stroke-miterlimit="10" stroke-width="2" d="M263.33 60.9v33.75l-99.1 34.26v64.39l99.1 34.26v-33.75l99.1-34.26V95.16l-99.1-34.26Zm64.8 73.54-64.8 22.38v33.75l-64.8-22.38v-14.16l64.8-22.38V97.9l64.8 22.38v14.16ZM164.23 83.3V69.14L99.44 46.77v33.74l-64.8 22.38v14.16l64.8 22.37v-33.74l64.79-22.38Z"/>
  <path stroke="#CCC" stroke-miterlimit="10" stroke-width="2" d="M99.44 9.77v33.75L.34 77.78v64.39l99.1 34.26v-33.75l99.1-34.26V44.03L99.44 9.77Zm64.79 73.53-64.8 22.38v33.75l-64.8-22.38v-14.16l64.8-22.38V46.76l64.8 22.38V83.3ZM328.13 199.98v-14.16l-64.8-22.37v33.74l-64.79 22.38v14.16l64.79 22.37v-33.74l64.8-22.38Z"/>
  <path stroke="#CCC" stroke-miterlimit="10" stroke-width="2" d="M263.33 126.45v33.75l-99.1 34.26v64.39l99.1 34.26v-33.75l99.1-34.26v-64.39l-99.1-34.26Zm64.8 73.53-64.8 22.38v33.75l-64.8-22.38v-14.16l64.8-22.38v-33.75l64.8 22.38v14.16Z"/>
  <path stroke="#CCC" stroke-miterlimit="10" stroke-width="2" d="M328.13 74.39V60.23l-64.8-22.38V71.6l-64.79 22.37v14.16l64.79 22.38V96.76l64.8-22.37Z"/>
  <path stroke="#CCC" stroke-miterlimit="10" stroke-width="2" d="M263.33.85V34.6l-99.1 34.26v64.39l99.1 34.26v-33.75l99.1-34.26V35.11L263.33.85Zm64.8 73.54-64.8 22.38v33.75l-64.8-22.38V93.98l64.8-22.38V37.85l64.8 22.38v14.16ZM229.03 235.11v-14.15l-64.8-22.38v33.74L99.44 254.7v14.16l64.79 22.38v-33.75l64.8-22.38Z"/>
  <path stroke="#CCC" stroke-miterlimit="10" stroke-width="2" d="M164.23 161.58v33.75l-99.1 34.26v64.39l99.1 34.26v-33.75l99.1-34.26v-64.39l-99.1-34.26Zm64.8 73.53-64.8 22.38v33.75l-64.8-22.38V254.7l64.8-22.38v-33.75l64.8 22.38v14.16ZM229.03 105.46V91.3l-64.8-22.38v33.75l-64.79 22.37v14.16l64.79 22.38v-33.75l64.8-22.37Z"/>
  <path stroke="#CCC" stroke-miterlimit="10" stroke-width="2" d="M164.23 31.92v33.75l-99.1 34.26v64.39l99.1 34.26v-33.75l99.1-34.26V66.18l-99.1-34.26Zm64.8 73.54-64.8 22.38v33.75l-64.8-22.38v-14.16l64.8-22.38V68.92l64.8 22.38v14.16ZM303.67 134.44v-14.16l64.8-22.38v33.75l64.79 22.37v14.16l-64.79 22.38v-33.75l-64.8-22.37Z"/>
  <path stroke="#CCC" stroke-miterlimit="10" stroke-width="2" d="M269.37 95.16v64.39l99.1 34.26v33.75l99.1-34.26v-64.39l-99.1-34.26V60.9l-99.1 34.26Zm34.3 25.12 64.8-22.38v33.75l64.8 22.38v14.16l-64.8 22.38v-33.75l-64.8-22.38v-14.16ZM467.57 83.3V69.14l64.79-22.37v33.74l64.8 22.38v14.16l-64.8 22.37v-33.74L467.57 83.3Z"/>
  <path stroke="#CCC" stroke-miterlimit="10" stroke-width="2" d="M433.26 44.02v64.39l99.1 34.26v33.75l99.1-34.26V77.77l-99.1-34.26V9.76l-99.1 34.26Zm34.31 25.12 64.8-22.38v33.75l64.8 22.38v14.16l-64.8 22.38v-33.75l-64.8-22.38V69.14ZM303.67 199.98v-14.16l64.8-22.37v33.74l64.79 22.38v14.16l-64.79 22.37v-33.74l-64.8-22.38Z"/>
  <path stroke="#CCC" stroke-miterlimit="10" stroke-width="2" d="M269.37 160.7v64.39l99.1 34.26v33.75l99.1-34.26v-64.39l-99.1-34.26v-33.75l-99.1 34.26Zm34.3 25.12 64.8-22.38v33.75l64.8 22.38v14.16l-64.8 22.38v-33.75l-64.8-22.38v-14.16Z"/>
  <path stroke="#CCC" stroke-miterlimit="10" stroke-width="2" d="M303.67 74.39V60.23l64.8-22.38V71.6l64.79 22.37v14.16l-64.79 22.38V96.76l-64.8-22.37Z"/>
  <path stroke="#CCC" stroke-miterlimit="10" stroke-width="2" d="M269.37 35.11V99.5l99.1 34.26v33.75l99.1-34.26V68.86l-99.1-34.26V.85l-99.1 34.26Zm34.3 25.12 64.8-22.38V71.6l64.8 22.38v14.16l-64.8 22.38V96.77l-64.8-22.38V60.23ZM402.77 235.11v-14.15l64.8-22.38v33.74l64.79 22.38v14.16l-64.79 22.38v-33.75l-64.8-22.38Z"/>
  <path stroke="#CCC" stroke-miterlimit="10" stroke-width="2" d="M368.47 195.84v64.39l99.1 34.26v33.75l99.1-34.26v-64.39l-99.1-34.26v-33.75l-99.1 34.26Zm34.3 25.12 64.8-22.38v33.75l64.8 22.38v14.16l-64.8 22.38V257.5l-64.8-22.38v-14.16ZM402.77 105.46V91.3l64.8-22.38v33.75l64.79 22.37v14.16l-64.79 22.38v-33.75l-64.8-22.37Z"/>
  <path stroke="#CCC" stroke-miterlimit="10" stroke-width="2" d="M368.47 66.18v64.39l99.1 34.26v33.75l99.1-34.26V99.93l-99.1-34.26V31.92l-99.1 34.26Zm34.3 25.12 64.8-22.38v33.75l64.8 22.38v14.16l-64.8 22.38v-33.75l-64.8-22.38V91.3Z"/>
</svg>