<svg xmlns="http://www.w3.org/2000/svg" width="2836" height="652" fill="none">
  <g clip-path="url(#a)">
    <path fill="#fff" d="M1951.35 236.636v26.247h35.96v8.471h-35.96v35.273h-10.97v-78.462h52.35v8.471h-41.38ZM2078.96 228.026v40.134c0 5.416-.84 10.415-2.37 15.137-1.52 4.722-4.02 8.888-7.08 12.498-3.05 3.611-6.94 6.389-11.66 8.333-4.58 2.083-10 3.055-15.97 3.055-5.97 0-11.66-.972-16.38-3.055-4.59-2.083-8.47-4.861-11.53-8.333-3.05-3.471-5.42-7.637-6.94-12.498-1.53-4.86-2.36-9.86-2.36-15.137v-40.134h10.97v40.134c0 4.861.69 9.027 2.08 12.776 1.39 3.75 3.33 6.805 5.69 9.305 2.36 2.499 5.14 4.444 8.33 5.693 3.2 1.25 6.67 1.945 10.28 1.945 3.75 0 7.36-.695 10.55-2.084 3.2-1.388 5.97-3.471 8.33-5.971 2.36-2.639 4.17-5.694 5.42-9.304 1.25-3.611 1.94-7.638 1.94-12.082v-40.134h10.97l-.27-.278ZM2141.72 297.878v8.749h-49.99v-78.462h11.11v69.713h38.88ZM2204.62 297.878v8.749h-49.99v-78.462h11.11v69.713h38.88ZM2247.8 307.322c-4.3 0-8.33-.556-12.22-1.667-3.88-1.111-7.35-2.638-10.41-4.582-3.05-1.945-5.55-4.444-7.64-7.361-2.08-2.916-3.33-6.249-4.02-9.86l10.55-1.388c0 1.805.69 3.61 1.94 5.416 1.25 1.805 2.92 3.472 5 4.999 2.09 1.528 4.58 2.639 7.36 3.611 2.78.972 5.83 1.388 9.17 1.388 2.91 0 5.69-.277 8.33-.833 2.64-.555 5-1.388 6.94-2.361 1.94-1.111 3.61-2.36 4.72-3.888 1.11-1.528 1.81-3.333 1.81-5.416 0-2.5-.7-4.583-2.22-6.11-1.53-1.667-3.48-2.917-5.98-4.028-2.49-1.11-5.41-1.944-8.6-2.777-3.2-.833-6.53-1.528-9.86-2.361-3.34-.833-6.67-1.666-9.86-2.638-3.2-.972-6.11-2.222-8.61-3.75-2.5-1.527-4.44-3.472-5.97-5.694-1.53-2.36-2.22-5.138-2.22-8.471 0-3.749.83-6.943 2.5-9.582 1.66-2.777 4.02-4.999 6.8-6.804 2.78-1.806 6.11-3.195 9.72-4.028 3.61-.833 7.5-1.388 11.52-1.388 4.45 0 8.47.555 12.22 1.527 3.75.972 6.95 2.5 9.86 4.444 2.78 1.805 5.14 4.166 6.95 6.666 1.8 2.638 3.05 5.416 3.61 8.471l-9.72 1.389s-.42-1.389-1.11-2.778c-.7-1.388-1.95-2.916-3.75-4.444-1.81-1.527-4.03-2.916-6.95-4.166-2.91-1.25-6.52-1.805-10.83-1.805-6.25 0-11.11.972-14.72 3.055-3.61 2.083-5.27 4.861-5.27 8.471 0 2.222.69 3.889 2.22 5.277 1.53 1.389 3.47 2.639 6.11 3.611 2.5.972 5.41 1.944 8.61 2.639 3.19.694 6.38 1.527 9.72 2.36 3.33.834 6.52 1.806 9.72 2.917a41.33 41.33 0 0 1 8.61 4.166c2.5 1.666 4.58 3.749 6.11 6.249 1.52 2.5 2.22 5.416 2.22 9.027 0 2.499-.56 4.999-1.81 7.637-1.25 2.639-3.19 5-5.83 7.222-2.64 2.222-5.97 4.027-10.14 5.416-4.16 1.388-9.16 2.083-14.85 2.083l.27.139ZM2357.36 236.359h-29.44v70.13h-10.96v-70.13h-29.44v-8.333h69.7v8.333h.14ZM2391.66 228.026l29.99 78.463h-12.36l-6.38-18.47H2370l-6.25 18.47h-12.22l29.02-78.463h11.11Zm-19.16 52.633h27.77l-14.16-40.829-13.75 40.829h.14ZM2504.27 277.187c-.83 4.305-2.22 8.332-4.02 12.081-1.95 3.75-4.31 6.944-7.36 9.582-3.06 2.639-6.81 4.861-11.11 6.389-4.31 1.527-9.31 2.221-15.14 2.221-5.14 0-10-.833-14.58-2.499-4.58-1.667-8.61-4.166-12.08-7.499-3.47-3.333-6.25-7.499-8.19-12.36-2.08-4.999-3.06-10.693-3.06-17.22 0-5.416.84-10.554 2.64-15.415 1.81-4.86 4.31-9.026 7.64-12.637 3.33-3.61 7.36-6.388 12.08-8.471s10.14-3.194 16.11-3.194c5.27 0 9.86.694 14.16 2.083 4.17 1.389 7.92 3.333 11.11 5.972 3.19 2.638 5.83 5.693 7.78 9.304 2.08 3.611 3.47 7.777 4.16 12.359l-9.58 1.111c-.69-3.194-1.67-6.11-3.05-8.748-1.39-2.639-3.2-5-5.42-6.805-2.22-1.805-4.72-3.333-7.78-4.444-3.05-1.111-6.38-1.528-10.13-1.528-4.31 0-8.2.834-11.81 2.361-3.47 1.528-6.38 3.75-8.88 6.527-2.5 2.778-4.31 5.972-5.56 9.582-1.25 3.75-1.94 7.638-1.94 11.804s.69 8.055 1.94 11.804c1.25 3.75 3.2 6.944 5.56 9.721 2.36 2.778 5.27 5 8.88 6.527 3.48 1.528 7.5 2.361 11.81 2.361 3.75 0 7.08-.555 9.99-1.666 2.92-1.111 5.56-2.639 7.78-4.444 2.22-1.944 4.03-4.166 5.42-6.805 1.38-2.638 2.5-5.555 3.05-8.61l9.72.833-.14-.277ZM2516.49 228.026h10.97v43.606l39.3-43.606h14.02l-31.93 34.718 34.57 43.745h-13.75l-28.18-37.079-14.03 14.581v22.498h-10.97v-78.463ZM2622.86 306.627v-78.462h28.46c5.28 0 10.42.972 15.14 2.916 4.72 1.945 8.88 4.583 12.35 8.055 3.48 3.472 6.39 7.499 8.34 12.359 2.08 4.722 3.05 9.999 3.05 15.832 0 5.832-1.11 11.109-3.19 15.97-2.09 4.86-5 9.026-8.47 12.498-3.47 3.472-7.64 6.111-12.36 8.055s-9.72 2.916-15 2.916h-28.46l.14-.139Zm56.65-39.439c0-4.444-.7-8.471-2.08-12.221-1.39-3.749-3.34-6.943-5.97-9.721-2.64-2.777-5.84-4.86-9.45-6.388-3.75-1.527-7.91-2.222-12.49-2.222h-15.56v61.52h15.56c4.44 0 8.47-.833 12.22-2.5 3.74-1.666 6.94-3.888 9.58-6.665 2.63-2.778 4.72-6.111 6.24-9.86 1.53-3.75 2.23-7.777 2.23-11.804l-.28-.139ZM2709.5 236.636v26.247h35.96v8.471h-35.96v26.802h41.38v8.471h-52.35v-78.462h52.35v8.471h-41.38ZM2836 228.026l-30.27 78.463h-11.53l-31.24-78.463h12.78c4.02 11.249 8.05 22.359 12.08 33.468 4.02 10.971 8.05 22.22 12.08 33.468 3.88-11.248 7.91-22.358 11.66-33.468 3.89-10.971 7.78-22.219 11.66-33.468H2836ZM2001.06 424.945l-8.06-7.36c-3.33 2.361-7.08 4.305-10.97 5.833-3.88 1.527-8.47 2.361-13.6 2.361-3.34 0-6.67-.417-10-1.25s-6.39-2.222-9.03-3.889c-2.64-1.666-4.86-4.027-6.39-6.665-1.52-2.639-2.49-5.833-2.49-9.583 0-3.332.69-6.249 2.22-8.748 1.52-2.5 3.19-4.444 5.13-6.111 1.81-1.666 3.62-3.055 5.42-3.888 1.67-.972 2.78-1.528 3.19-1.944-.41-.417-1.25-1.111-2.36-2.222-1.11-1.111-2.5-2.361-3.75-4.028-1.25-1.666-2.49-3.332-3.47-5.415-.97-2.084-1.52-4.167-1.52-6.527 0-2.5.55-4.861 1.52-7.222.98-2.222 2.5-4.305 4.45-5.971 1.94-1.667 4.3-3.194 7.22-4.166 2.91-.972 6.11-1.528 9.86-1.528 3.33 0 6.38.417 9.3 1.389 2.91.972 5.28 2.222 7.22 3.888 1.94 1.667 3.61 3.611 4.72 5.833 1.11 2.222 1.67 4.583 1.67 6.943 0 1.945-.42 3.75-1.39 5.416-.83 1.806-1.95 3.333-3.33 4.861-1.39 1.527-2.78 2.916-4.45 4.027-1.52 1.25-3.05 2.222-4.44 3.194-1.39.833-2.5 1.528-3.47 2.083-.97.556-1.39.833-1.53.833l20.83 18.47c.83-1.111 1.39-2.361 1.94-4.027.56-1.666.97-3.333 1.11-5.138.28-1.806.42-3.611.42-5.416 0-1.806-.14-3.472-.56-4.722h11.11c0 1.111.28 2.222.28 3.472s0 2.5-.14 3.749a25.194 25.194 0 0 1-1.11 5.972c-.55 1.805-1.11 3.611-1.8 5.138-.7 1.528-1.39 2.916-2.23 4.166a18.698 18.698 0 0 1-2.08 3.055c2.78 2.5 5.69 5 8.47 7.499 2.78 2.5 5.69 5 8.47 7.5h-16.66l.28.138Zm-14.72-13.748c-3.89-3.749-7.64-7.221-11.39-10.415-3.75-3.194-7.5-6.805-11.66-10.554-2.5 1.249-4.72 2.638-6.53 4.166a20.693 20.693 0 0 0-4.3 4.999c-1.11 1.805-1.53 3.472-1.39 5.277 0 1.806.69 3.472 2.08 5.138 1.53 1.945 3.75 3.472 6.39 4.583 2.64 1.111 5.55 1.667 8.61 1.806 3.05 0 6.25-.278 9.44-1.111 3.19-.834 6.11-2.222 8.89-4.028l-.14.139Zm-30.69-47.077c0 1.25.42 2.638 1.11 4.027a17.72 17.72 0 0 0 2.64 3.889 39.448 39.448 0 0 0 3.19 3.61 47.178 47.178 0 0 0 3.06 2.778c1.25-.834 2.78-1.667 4.44-2.778 1.67-.972 3.47-2.083 5-3.333 1.67-1.25 3.06-2.499 4.17-3.749 1.11-1.25 1.66-2.778 1.66-4.305 0-1.389-.27-2.639-.97-3.75-.69-1.111-1.67-2.083-2.78-2.916-1.11-.833-2.5-1.389-4.16-1.944-1.53-.417-3.2-.695-5-.695-3.89 0-6.94.834-9.17 2.5-2.22 1.666-3.19 3.888-3.19 6.527v.139ZM2127.28 346.483v40.134c0 5.416-.84 10.415-2.36 15.137-1.67 4.722-4.03 8.888-7.08 12.499-3.2 3.61-6.95 6.388-11.67 8.332-4.58 2.083-10 3.055-16.11 3.055-6.11 0-11.66-.972-16.38-3.055-4.58-2.083-8.47-4.861-11.66-8.332-3.2-3.472-5.42-7.638-6.95-12.499-1.52-4.86-2.36-9.86-2.36-15.137v-40.134h10.97v40.134c0 4.861.7 9.027 2.08 12.776 1.39 3.75 3.2 6.805 5.7 9.305 2.36 2.499 5.14 4.444 8.33 5.693a27.608 27.608 0 0 0 10.27 1.945c3.75 0 7.36-.695 10.56-2.083 3.19-1.389 5.97-3.472 8.33-5.972 2.36-2.639 4.16-5.694 5.41-9.304 1.25-3.611 1.95-7.638 1.95-12.082v-40.134h10.97v-.278ZM2192.96 424.946l-22.91-31.108-23.06 31.108h-13.05l29.58-39.718-28.74-38.745h13.19l21.94 30.135 21.94-30.135h13.19l-28.75 38.745 29.58 39.718h-13.05.14ZM2247.53 424.946v-78.463h28.46c5.28 0 10.42.972 15.14 2.917 4.72 1.944 8.88 4.582 12.36 8.054 3.47 3.472 6.38 7.499 8.33 12.36 2.08 4.721 3.05 9.998 3.05 15.831s-1.11 11.11-3.19 15.97c-2.08 4.861-5 9.027-8.47 12.499-3.47 3.471-7.64 6.11-12.36 8.054s-9.72 2.916-15 2.916h-28.46l.14-.138Zm56.51-39.44c0-4.444-.69-8.471-2.08-12.22-1.39-3.75-3.33-6.944-5.97-9.721-2.64-2.778-5.83-4.861-9.44-6.389-3.75-1.527-7.92-2.221-12.5-2.221h-15.55v61.519h15.55c4.44 0 8.47-.833 12.22-2.499 3.75-1.667 6.94-3.889 9.58-6.666 2.64-2.777 4.72-6.11 6.25-9.86 1.52-3.749 2.22-7.777 2.22-11.804l-.28-.139ZM2334.17 354.955v26.246h35.97v8.471h-35.97v26.802h41.38v8.472h-52.35v-78.463h52.35v8.472h-41.38ZM2420.96 425.779c-4.31 0-8.33-.556-12.22-1.667-3.89-1.111-7.36-2.638-10.41-4.582-3.06-1.945-5.56-4.444-7.64-7.361-2.08-2.916-3.33-6.249-4.03-9.86l10.55-1.388c0 1.805.7 3.61 1.95 5.416 1.25 1.805 2.91 3.472 5 4.999 2.08 1.528 4.58 2.639 7.36 3.611 2.77.972 5.83 1.388 9.16 1.388 2.92 0 5.69-.277 8.33-.833 2.64-.555 5-1.388 6.94-2.361 1.95-1.111 3.62-2.36 4.73-3.888 1.11-1.528 1.8-3.333 1.8-5.416 0-2.5-.69-4.583-2.22-6.11-1.53-1.667-3.47-2.917-5.97-4.027-2.5-1.111-5.42-1.945-8.61-2.778-3.19-.833-6.53-1.528-9.86-2.361-3.33-.833-6.66-1.666-9.86-2.638-3.19-.972-6.11-2.222-8.61-3.75-2.5-1.527-4.44-3.472-5.97-5.694-1.53-2.36-2.22-5.138-2.22-8.471 0-3.749.83-6.943 2.5-9.582 1.67-2.777 4.03-4.999 6.8-6.804 2.78-1.806 6.11-3.194 9.72-4.028 3.61-.833 7.5-1.388 11.53-1.388 4.44 0 8.47.555 12.22 1.527 3.75.972 6.94 2.5 9.86 4.444 2.77 1.805 5.13 4.166 6.94 6.666 1.81 2.638 3.05 5.416 3.61 8.471l-9.72 1.389s-.42-1.389-1.11-2.778c-.69-1.388-1.94-2.916-3.75-4.444-1.81-1.527-4.03-2.916-6.94-4.166-2.92-1.25-6.53-1.805-10.83-1.805-6.25 0-11.11.972-14.72 3.055-3.61 2.083-5.28 4.861-5.28 8.471 0 2.222.7 3.889 2.22 5.277 1.53 1.389 3.47 2.639 6.11 3.611 2.5.972 5.42 1.944 8.61 2.639 3.2.694 6.39 1.527 9.72 2.36 3.33.834 6.53 1.806 9.72 2.917 3.2 1.111 5.97 2.499 8.61 4.166 2.5 1.666 4.58 3.749 6.11 6.249 1.53 2.5 2.22 5.416 2.22 9.027 0 2.499-.55 4.999-1.8 7.638-1.25 2.638-3.2 4.999-5.83 7.221-2.64 2.222-5.98 4.027-10.14 5.416-4.17 1.389-9.17 2.083-14.86 2.083l.28.139ZM2468.17 424.946v-78.463h11.11v78.463h-11.11ZM2571.76 387.311v37.496h-10.97v-11.943c-1.11 1.388-2.5 2.777-4.03 4.305-1.53 1.527-3.33 2.916-5.55 4.027-2.09 1.25-4.59 2.222-7.5 3.055-2.92.833-6.11 1.25-9.72 1.25-5.14 0-10-.833-14.58-2.5-4.58-1.666-8.61-4.166-12.08-7.499-3.47-3.333-6.25-7.499-8.2-12.359-2.08-5-3.05-10.693-3.05-17.22 0-5.416.83-10.554 2.64-15.415 1.8-4.86 4.3-9.027 7.64-12.637 3.33-3.611 7.35-6.388 12.08-8.471 4.72-2.083 10.13-3.194 16.1-3.194 5.28 0 9.86.694 14.17 2.083 4.16 1.388 7.91 3.333 11.11 5.971 3.19 2.639 5.83 5.694 7.77 9.304 2.08 3.611 3.47 7.777 4.17 12.36l-9.58 1.111c-.7-3.194-1.67-6.11-3.06-8.749-1.39-2.638-3.19-4.999-5.41-6.805-2.23-1.805-4.73-3.333-7.78-4.444-3.06-1.11-6.39-1.527-10.14-1.527-4.3 0-8.19.833-11.8 2.361-3.47 1.527-6.39 3.749-8.89 6.527-2.5 2.777-4.3 5.971-5.55 9.582-1.25 3.749-1.94 7.638-1.94 11.804s.69 8.054 1.94 11.804c1.25 3.749 3.19 6.943 5.55 9.721a23.534 23.534 0 0 0 8.89 6.527c3.47 1.527 7.5 2.361 11.8 2.361h3.06c1.25 0 2.5-.278 4.02-.556 1.53-.278 3.06-.833 4.59-1.527 1.52-.695 3.19-1.667 4.86-2.778a28.176 28.176 0 0 0 4.58-4.444c1.25-1.527 2.08-3.055 2.78-4.583.69-1.527 1.11-2.777 1.52-4.027.28-1.25.56-2.083.7-2.638h-21.94v-8.471h31.94l-.14.138ZM2654.1 346.483v78.463h-14.03l-41.79-66.659v66.659h-10.97v-78.463h14.16l41.8 66.381v-66.381h10.97-.14ZM2683.12 354.955v26.246h35.96v8.471h-35.96v26.802h41.38v8.472h-52.35v-78.463h52.35v8.472h-41.38ZM2802.67 424.946h-13.19l-17.91-26.108h-21.52v26.108h-11.11v-78.463h33.05c4.02 0 7.77.695 11.11 2.083 3.33 1.389 6.11 3.194 8.47 5.694 2.36 2.361 4.16 5.138 5.41 8.332a28.36 28.36 0 0 1 1.95 10.416c0 5.555-1.53 10.554-4.59 14.72-3.05 4.305-6.94 7.36-11.8 9.166l20 27.913.13.139Zm-52.48-34.718h23.19c2.36 0 4.44-.556 6.38-1.528 1.95-.972 3.61-2.361 5-4.027 1.39-1.666 2.36-3.611 3.2-5.694.69-2.083 1.11-4.305 1.11-6.388s-.42-4.305-1.25-6.388c-.84-2.083-1.95-3.888-3.47-5.555-1.53-1.666-3.2-2.916-5.28-3.888s-4.31-1.389-6.67-1.389h-22.07v34.857h-.14ZM963.663 178.171h32.492c-3.055 32.219-24.717 53.466-54.293 53.466h-56.931c-31.243 0-54.709-24.719-54.709-61.798 0-37.078 22.772-61.797 54.709-61.797h56.931c29.438 0 51.099 21.247 54.293 53.465h-32.492c-2.916-10.415-10.97-18.47-21.801-18.47h-56.931c-13.469 0-22.772 11.804-22.772 26.802 0 16.526 9.303 28.33 22.772 28.33h56.931c10.831 0 18.885-9.443 21.801-19.998ZM1044.48 142.482v11.943h97.06v31.107h-97.06v11.665h106.78v32.496H1013.1V109.986h138.16v32.496h-106.78ZM1322.47 190.115c0 24.58-14.58 40.828-48.05 41.522h-58.87c-39.85 0-46.38-26.663-46.38-42.633h31.52c.83 5.971 6.8 9.165 16.94 9.165h56.93c11.25 0 15.97-2.777 15.97-7.36 0-3.472-2.36-6.388-9.72-6.388h-72.76c-24.72 0-37.35-13.61-37.35-34.857s11.24-41.383 46.38-41.661h57.9c40.27 0 45.27 29.857 45.27 41.522h-31.52c-.56-4.999-4.45-9.165-14.72-9.165h-57.07c-11.81 0-14.58 3.888-14.58 7.499 0 3.611 2.36 6.388 8.88 6.388h75.12c23.61 0 35.83 14.859 35.83 36.106l.28-.138ZM1465.21 210.668h-94.98l-4.16 19.025h-31.66l26.38-119.568h113.86l26.39 119.568h-31.8l-4.17-19.025h.14Zm-7.22-33.329-7.36-34.302h-65.82l-7.36 34.302h80.54ZM1515.34 109.986h111.22c25.41 0 42.21 20.692 42.21 46.105 0 17.914-8.47 33.468-22.21 41.106l17.63 32.218h-36.38l-13.47-27.358h-67.62v27.358h-31.52V109.986h.14Zm111.22 59.298c5.97 0 10.97-5.833 10.97-13.193 0-7.36-5-13.193-10.97-13.193h-79.7v26.247h79.7v.139ZM980.88 370.925c0 24.024-14.163 39.856-46.794 40.411h-57.487c-38.88 0-45.267-25.969-45.267-41.661h30.687c.833 5.832 6.665 9.027 16.524 9.027h55.543c10.969 0 15.552-2.639 15.552-7.222 0-3.333-2.361-6.11-9.443-6.11h-71.094c-24.161 0-36.38-13.332-36.38-34.024 0-20.691 10.969-40.272 45.267-40.689h56.514c39.297 0 44.157 29.163 44.157 40.412h-30.688c-.555-4.861-4.304-9.027-14.302-9.027h-55.681c-11.525 0-14.164 3.888-14.164 7.36 0 3.472 2.361 6.111 8.61 6.111h73.454c23.051 0 34.992 14.442 34.992 35.134v.278ZM1157.78 351.066c0 36.106-22.21 60.27-53.32 60.27h-55.54c-30.41 0-53.321-24.164-53.321-60.27 0-36.107 22.221-60.27 53.321-60.27h55.54c31.11 0 53.32 24.302 53.32 60.27Zm-31.1 0c0-14.72-9.03-26.108-22.22-26.108h-55.54c-13.19 0-22.22 11.527-22.22 26.108 0 14.581 9.03 26.108 22.22 26.108h55.54c13.19 0 22.22-11.388 22.22-26.108ZM1174.45 356.204V292.74h30.54v61.242c0 12.36 4.59 23.192 17.36 23.192h55.54c12.92 0 17.36-10.832 17.36-23.192V292.74h30.55v63.464c0 36.107-18.19 55.132-47.91 55.132h-55.54c-29.71 0-47.9-19.025-47.9-55.132ZM1492.98 370.925c0 24.024-14.16 39.856-46.79 40.411h-57.49c-38.88 0-45.27-25.969-45.27-41.661h30.69c.83 5.832 6.67 9.027 16.52 9.027h55.55c10.97 0 15.55-2.639 15.55-7.222 0-3.333-2.36-6.11-9.44-6.11h-71.1c-24.16 0-36.38-13.332-36.38-34.024 0-20.691 10.97-40.272 45.27-40.689h56.51c39.3 0 44.16 29.163 44.16 40.412h-30.69c-.55-4.861-4.3-9.027-14.3-9.027h-55.68c-11.53 0-14.16 3.888-14.16 7.36 0 3.472 2.36 6.111 8.61 6.111h73.45c23.05 0 34.99 14.442 34.99 35.134v.278ZM1632.25 390.783h-92.75l-4.03 18.47h-30.82l25.68-116.651h111.23l25.69 116.651h-30.97l-4.03-18.47Zm-7.08-32.357-7.22-33.467h-64.15l-7.22 33.467h78.73-.14ZM967.273 557.151v32.634H833.415V471.467h31.104v85.684h102.892-.138ZM986.99 471.329h31.1v118.318h-31.1V471.329ZM1068.92 503.546v11.805h96.22v30.829h-96.22v11.526h105.8v32.079h-136.91V471.467h136.91v32.079h-105.8ZM1348.57 530.626c0 36.523-23.46 59.159-54.29 59.159h-99.98V471.467h99.98c30.96 0 54.29 22.497 54.29 59.159Zm-31.52 0c0-15.275-9.58-26.663-22.77-26.663h-69.01v53.465h69.01c13.19-.277 22.77-11.665 22.77-26.663v-.139ZM1493.54 530.626l23.46 59.159h-33.6l-17.22-44.022h-69.43v44.022h-31.24V471.467h31.24v41.939h70.27l16.38-41.939h33.6l-23.46 59.159ZM1563.52 503.546v11.805h96.23v30.829h-96.23v11.526h105.81v32.079h-136.91V471.467h136.91v32.079h-105.81Z"/>
    <path fill="#08FF77" d="M120.388 327.041v49.716l227.586 78.601v129.984L0 464.94V238.858l347.974-120.262V248.44l-227.586 78.601Z"/>
    <path fill="#08FF77" d="M575.42 258.161v-49.715l-227.585-78.601V0l347.974 120.262v226.083L347.835 466.607V336.763l227.585-78.602Z"/>
    <path fill="#fff" d="M1810.41 34.58h-10.69V651.86h10.69V34.579Z"/>
  </g>
  <defs>
    <clipPath id="a">
      <path fill="#fff" d="M0 0h2836v652H0z"/>
    </clipPath>
  </defs>
</svg>
